<?xml version="1.0" standalone="no"?>
<!DOCTYPE svg PUBLIC "-//W3C//DTD SVG 20010904//EN"
 "http://www.w3.org/TR/2001/REC-SVG-20010904/DTD/svg10.dtd">
<svg version="1.0" xmlns="http://www.w3.org/2000/svg"
 width="753.000000pt" height="753.000000pt" viewBox="0 0 753.000000 753.000000"
 preserveAspectRatio="xMidYMid meet">
<metadata>
Created by potrace 1.11, written by Peter Selinger 2001-2013
</metadata>
<g transform="translate(0.000000,753.000000) scale(0.100000,-0.100000)"
fill="#000000" stroke="none">
<path d="M3519 7526 c-2 -2 -39 -6 -81 -10 -140 -12 -292 -33 -378 -52 -14 -3
-38 -8 -55 -10 -125 -22 -460 -122 -596 -179 -35 -15 -82 -34 -104 -43 -175
-73 -457 -229 -635 -350 -83 -57 -256 -186 -270 -202 -3 -3 -36 -32 -75 -65
-75 -63 -285 -270 -350 -346 -78 -88 -92 -105 -171 -209 -144 -188 -311 -457
-394 -635 -12 -27 -35 -77 -51 -110 -109 -236 -219 -589 -264 -852 -8 -49 -17
-100 -20 -113 -3 -14 -7 -52 -11 -85 -3 -33 -7 -65 -9 -72 -17 -54 -25 -478
-12 -666 45 -663 274 -1315 655 -1867 177 -257 388 -492 643 -716 59 -52 249
-197 334 -256 304 -208 690 -390 1059 -497 129 -38 381 -94 471 -105 22 -3 56
-7 75 -10 19 -3 51 -7 70 -10 193 -26 685 -27 850 -1 14 2 49 7 79 10 30 4 63
9 75 11 11 2 36 6 56 9 41 6 47 7 155 29 44 10 101 23 128 31 26 8 49 14 52
15 3 0 6 0 8 1 1 0 13 3 27 5 29 5 315 100 345 114 11 5 60 25 108 45 198 80
473 230 660 359 847 585 1416 1476 1581 2476 3 19 8 45 10 57 3 12 8 53 11 90
4 37 10 77 13 88 9 34 11 687 2 750 -5 33 -11 85 -15 115 -5 45 -41 250 -59
335 -13 62 -28 124 -36 150 -5 17 -26 84 -46 150 -122 402 -330 804 -599 1156
-117 154 -180 225 -335 379 -446 445 -976 760 -1595 949 -90 27 -366 86 -455
97 -19 2 -46 6 -60 9 -14 2 -52 7 -85 10 -33 4 -71 9 -85 12 -27 5 -615 14
-621 9z"/>
</g>
</svg>
